# xmcd CD database file
#
# Track frame offsets:
#	150
#	20900
#	39075
#	60790
#	83417
#	101850
#	124715
#	142700
#	163475
#	184802
#	205657
#
# Disc length: 3002 seconds
#
# Revision: 0
# Processed by: cddbd v1.5.1PL2 Copyright (c) Steve Scherf et al.
# Submitted via: CDex 1.51
#
DISCID=870bb80b
DTITLE=정경화 - 1집
DYEAR=1993
DGENRE=Blues
TTITLE0=너를 생각하며
TTITLE1=내가 왜
TTITLE2=남겨진 날들
TTITLE3=내가 가는 길
TTITLE4=사랑보다 더욱
TTITLE5=가을여정
TTITLE6=창가에
TTITLE7=매일 변해가는
TTITLE8=우리 다시 만날때까지
TTITLE9=이제야
TTITLE10=거리에 서서
EXTD=YEAR: 1993
EXTT0=
EXTT1=
EXTT2=
EXTT3=
EXTT4=
EXTT5=
EXTT6=
EXTT7=
EXTT8=
EXTT9=
EXTT10=
PLAYORDER=
